<svg width="64" height="64" viewBox="0 0 64 64" fill="none" xmlns="http://www.w3.org/2000/svg">
  <!-- 背景圆形 -->
  <circle cx="32" cy="32" r="30" fill="#2563eb" stroke="#1e40af" stroke-width="4"/>
  
  <!-- 图表条形 -->
  <rect x="12" y="40" width="6" height="12" rx="3" fill="white"/>
  <rect x="21" y="35" width="6" height="17" rx="3" fill="white"/>
  <rect x="30" y="25" width="6" height="27" rx="3" fill="white"/>
  <rect x="39" y="38" width="6" height="14" rx="3" fill="white"/>
  <rect x="48" y="30" width="6" height="22" rx="3" fill="white"/>
  
  <!-- 趋势线 -->
  <path d="M15 40 L24 35 L33 25 L42 38 L51 30" stroke="#fbbf24" stroke-width="3" stroke-linecap="round" stroke-linejoin="round"/>
  
  <!-- 数据点 -->
  <circle cx="15" cy="40" r="3" fill="#fbbf24" stroke="white" stroke-width="1"/>
  <circle cx="24" cy="35" r="3" fill="#fbbf24" stroke="white" stroke-width="1"/>
  <circle cx="33" cy="25" r="3" fill="#fbbf24" stroke="white" stroke-width="1"/>
  <circle cx="42" cy="38" r="3" fill="#fbbf24" stroke="white" stroke-width="1"/>
  <circle cx="51" cy="30" r="3" fill="#fbbf24" stroke="white" stroke-width="1"/>
  
  <!-- 装饰元素 -->
  <rect x="16" y="12" width="32" height="3" rx="1.5" fill="white" opacity="0.8"/>
  <rect x="20" y="17" width="24" height="2" rx="1" fill="white" opacity="0.6"/>
  
  <!-- 中心装饰 -->
  <circle cx="32" cy="32" r="3" fill="white" opacity="0.3"/>
</svg> 